<svg xmlns="http://www.w3.org/2000/svg" viewBox="0 0 35 35"><circle cx="17.5" cy="17.5" r="17.5" fill="#e3642e"/><path d="M18.71 12.81l-1.32 1.89H28.8c-5.72 7.21-9.4 12-9.34 12h2l10.7-13.86z" fill="#fff"/><path d="M15.84 14.71C18.57 11.09 18 9.62 18 9.24 17.93 5.9 15.28 4 12.28 4 8.1 4 6 7.32 6.11 11.89h1.74C7.79 8.62 9 5.7 12.19 5.7c2.34 0 4.3 1.18 4.3 4.07a9 9 0 0 1-2.35 4.66C9.3 20.2 6.09 25 6.09 25a5.61 5.61 0 0 0-.88 1.68h9.07v5.84h1.56v-5.85h2L19 25h-3.16zM8 25c.07-.24 4.26-5.69 6.27-8.29V25z" fill="#fff"/></svg>