<svg width="1268" height="737" viewBox="0 0 1268 737" fill="none" xmlns="http://www.w3.org/2000/svg">
<g opacity="0.2">
<ellipse cx="183.194" cy="446.789" rx="72.8595" ry="72.0655" transform="rotate(-38.6328 183.194 446.789)" fill="#C97E7E"/>
<ellipse cx="356.398" cy="159.586" rx="72.8595" ry="72.0655" transform="rotate(-38.6328 356.398 159.586)" fill="#7EC9B7"/>
<ellipse cx="356.398" cy="159.586" rx="72.8595" ry="72.0655" transform="rotate(-38.6328 356.398 159.586)" fill="#7EC9B7"/>
<ellipse cx="356.398" cy="159.586" rx="72.8595" ry="72.0655" transform="rotate(-38.6328 356.398 159.586)" fill="#7EC9B7"/>
<ellipse cx="356.398" cy="159.586" rx="72.8595" ry="72.0655" transform="rotate(-38.6328 356.398 159.586)" fill="#7EC9B7"/>
<ellipse cx="517.821" cy="248.42" rx="72.8595" ry="72.0655" transform="rotate(-38.6328 517.821 248.42)" fill="#7EC9B7"/>
<ellipse cx="517.821" cy="248.42" rx="72.8595" ry="72.0655" transform="rotate(-38.6328 517.821 248.42)" fill="#7EC9B7"/>
<ellipse cx="517.821" cy="248.42" rx="72.8595" ry="72.0655" transform="rotate(-38.6328 517.821 248.42)" fill="#7EC9B7"/>
<ellipse cx="517.821" cy="248.42" rx="72.8595" ry="72.0655" transform="rotate(-38.6328 517.821 248.42)" fill="#7EA1C9"/>
<path d="M320.834 281.865L438.081 473.869L192.153 469.111L320.834 281.865Z" fill="#E4D0D0"/>
<path d="M332.68 184.616L449.834 379.736L203.905 374.978L332.68 184.616Z" fill="#E4DAD0"/>
<path d="M469.56 251.938L586.713 447.058L340.785 442.3L469.56 251.938Z" fill="#D0D8E4"/>
</g>
<g opacity="0.2">
<ellipse rx="72.8595" ry="72.0655" transform="matrix(-0.781163 -0.624327 -0.624327 0.781163 1108.31 444.008)" fill="#C97E7E"/>
<ellipse rx="72.8595" ry="72.0655" transform="matrix(-0.781163 -0.624327 -0.624327 0.781163 935.107 156.805)" fill="#7EC9B7"/>
<ellipse rx="72.8595" ry="72.0655" transform="matrix(-0.781163 -0.624327 -0.624327 0.781163 935.107 156.805)" fill="#7EC9B7"/>
<ellipse rx="72.8595" ry="72.0655" transform="matrix(-0.781163 -0.624327 -0.624327 0.781163 935.107 156.805)" fill="#7EC9B7"/>
<ellipse rx="72.8595" ry="72.0655" transform="matrix(-0.781163 -0.624327 -0.624327 0.781163 935.107 156.805)" fill="#7EC9B7"/>
<ellipse rx="72.8595" ry="72.0655" transform="matrix(-0.781163 -0.624327 -0.624327 0.781163 773.684 245.639)" fill="#7EC9B7"/>
<ellipse rx="72.8595" ry="72.0655" transform="matrix(-0.781163 -0.624327 -0.624327 0.781163 773.684 245.639)" fill="#7EC9B7"/>
<ellipse rx="72.8595" ry="72.0655" transform="matrix(-0.781163 -0.624327 -0.624327 0.781163 773.684 245.639)" fill="#7EC9B7"/>
<ellipse rx="72.8595" ry="72.0655" transform="matrix(-0.781163 -0.624327 -0.624327 0.781163 773.684 245.639)" fill="#7EA1C9"/>
<path d="M970.671 279.084L853.424 471.088L1099.35 466.33L970.671 279.084Z" fill="#E4D0D0"/>
<path d="M958.825 181.835L841.672 376.955L1087.6 372.197L958.825 181.835Z" fill="#E4DAD0"/>
<path d="M821.945 249.157L704.792 444.277L950.72 439.519L821.945 249.157Z" fill="#D0D8E4"/>
</g>
</svg>
