<svg width="1280" height="720" viewBox="0 0 1280 720" fill="none" xmlns="http://www.w3.org/2000/svg">
<g opacity="0.5">
<ellipse cx="275.488" cy="225.911" rx="177.23" ry="158.593" transform="rotate(29.3877 275.488 225.911)" fill="#C97E7E"/>
<ellipse cx="967.41" cy="215.841" rx="177.23" ry="158.593" transform="rotate(29.3877 967.41 215.841)" fill="#7EC9B7"/>
<ellipse cx="967.41" cy="215.841" rx="177.23" ry="158.593" transform="rotate(29.3877 967.41 215.841)" fill="#7EC9B7"/>
<ellipse cx="967.41" cy="215.841" rx="177.23" ry="158.593" transform="rotate(29.3877 967.41 215.841)" fill="#7EC9B7"/>
<ellipse cx="967.41" cy="215.841" rx="177.23" ry="158.593" transform="rotate(29.3877 967.41 215.841)" fill="#7EC9B7"/>
<ellipse cx="853.461" cy="775.96" rx="177.23" ry="158.593" transform="rotate(29.3877 853.461 775.96)" fill="#7EC9B7"/>
<ellipse cx="853.461" cy="775.96" rx="177.23" ry="158.593" transform="rotate(29.3877 853.461 775.96)" fill="#7EC9B7"/>
<ellipse cx="853.461" cy="775.96" rx="177.23" ry="158.593" transform="rotate(29.3877 853.461 775.96)" fill="#7EC9B7"/>
<ellipse cx="853.461" cy="775.96" rx="177.23" ry="158.593" transform="rotate(29.3877 853.461 775.96)" fill="#7EA1C9"/>
<path d="M672.676 350.607L364.862 746.951L133.809 219.644L672.676 350.607Z" fill="#E4D0D0"/>
<path d="M962.119 275.468L654.306 671.812L423.253 144.505L962.119 275.468Z" fill="#E4DAD0"/>
<path d="M882.405 545.273L574.592 941.616L343.539 414.31L882.405 545.273Z" fill="#D0D8E4"/>
</g>
</svg>
