<svg width="1280" height="650" viewBox="0 0 1280 650" fill="none" xmlns="http://www.w3.org/2000/svg">
<path d="M-134 284.625L1289.83 7.05719e-05L1362.75 364.783L-61.0796 649.408L-134 284.625Z" fill="#D0D8E4"/>
<path d="M571 351.5C571 344.044 577.044 338 584.5 338L706.5 338C713.956 338 720 344.044 720 351.5C720 358.956 713.956 365 706.5 365L584.5 365C577.044 365 571 358.956 571 351.5Z" fill="#D0D8E4"/>
<path d="M599.828 357L599.828 347.06L606.45 347.06L606.45 348.446L601.396 348.446L601.396 351.414L605.624 351.414L605.624 352.716L601.396 352.716L601.396 357L599.828 357ZM607.739 357L607.739 349.678L609.279 349.678L609.279 357L607.739 357ZM607.739 348.474L607.739 346.78L609.279 346.78L609.279 348.474L607.739 348.474ZM617.696 357L616.156 357L616.156 352.898C616.156 352.207 616.044 351.708 615.82 351.4C615.605 351.083 615.283 350.924 614.854 350.924C614.63 350.924 614.406 350.966 614.182 351.05C613.958 351.134 613.748 351.255 613.552 351.414C613.356 351.563 613.179 351.745 613.02 351.96C612.871 352.165 612.754 352.394 612.67 352.646L612.67 357L611.13 357L611.13 349.678L612.53 349.678L612.53 351.148C612.81 350.653 613.216 350.266 613.748 349.986C614.28 349.697 614.868 349.552 615.512 349.552C615.951 349.552 616.31 349.631 616.59 349.79C616.87 349.949 617.089 350.168 617.248 350.448C617.416 350.719 617.533 351.036 617.598 351.4C617.663 351.755 617.696 352.133 617.696 352.534L617.696 357ZM622.466 357.14C621.971 357.14 621.514 357.042 621.094 356.846C620.674 356.641 620.31 356.365 620.002 356.02C619.694 355.675 619.451 355.273 619.274 354.816C619.106 354.349 619.022 353.85 619.022 353.318C619.022 352.805 619.101 352.324 619.26 351.876C619.428 351.419 619.656 351.017 619.946 350.672C620.244 350.327 620.59 350.056 620.982 349.86C621.383 349.655 621.822 349.552 622.298 349.552C622.886 349.552 623.404 349.697 623.852 349.986C624.3 350.266 624.65 350.625 624.902 351.064L624.902 346.78L626.442 346.78L626.442 355.18C626.442 355.357 626.47 355.483 626.526 355.558C626.591 355.633 626.703 355.675 626.862 355.684L626.862 357C626.703 357.028 626.572 357.047 626.47 357.056C626.376 357.065 626.297 357.07 626.232 357.07C625.924 357.07 625.672 356.991 625.476 356.832C625.28 356.673 625.172 356.468 625.154 356.216L625.126 355.67C624.855 356.127 624.486 356.487 624.02 356.748C623.553 357.009 623.035 357.14 622.466 357.14ZM622.844 355.824C623.068 355.824 623.292 355.787 623.516 355.712C623.74 355.637 623.945 355.535 624.132 355.404C624.318 355.273 624.477 355.119 624.608 354.942C624.748 354.765 624.846 354.573 624.902 354.368L624.902 352.45C624.818 352.217 624.696 352.002 624.538 351.806C624.388 351.61 624.216 351.442 624.02 351.302C623.824 351.162 623.614 351.055 623.39 350.98C623.175 350.905 622.956 350.868 622.732 350.868C622.424 350.868 622.139 350.938 621.878 351.078C621.626 351.218 621.406 351.405 621.22 351.638C621.033 351.871 620.884 352.137 620.772 352.436C620.669 352.735 620.618 353.043 620.618 353.36C620.618 353.696 620.674 354.013 620.786 354.312C620.907 354.611 621.07 354.872 621.276 355.096C621.481 355.32 621.714 355.497 621.976 355.628C622.246 355.759 622.536 355.824 622.844 355.824ZM636.183 357.07C635.473 357.07 634.825 356.93 634.237 356.65C633.658 356.361 633.159 355.983 632.739 355.516C632.319 355.04 631.992 354.499 631.759 353.892C631.535 353.285 631.423 352.665 631.423 352.03C631.423 351.367 631.544 350.733 631.787 350.126C632.029 349.519 632.361 348.983 632.781 348.516C633.21 348.049 633.714 347.681 634.293 347.41C634.881 347.13 635.52 346.99 636.211 346.99C636.92 346.99 637.564 347.139 638.143 347.438C638.731 347.727 639.23 348.11 639.641 348.586C640.061 349.062 640.383 349.603 640.607 350.21C640.84 350.807 640.957 351.419 640.957 352.044C640.957 352.707 640.835 353.341 640.593 353.948C640.359 354.555 640.028 355.091 639.599 355.558C639.169 356.015 638.661 356.384 638.073 356.664C637.494 356.935 636.864 357.07 636.183 357.07ZM633.019 352.03C633.019 352.497 633.093 352.949 633.243 353.388C633.392 353.827 633.602 354.214 633.873 354.55C634.153 354.886 634.489 355.157 634.881 355.362C635.273 355.558 635.711 355.656 636.197 355.656C636.701 355.656 637.144 355.553 637.527 355.348C637.919 355.133 638.25 354.853 638.521 354.508C638.791 354.163 638.997 353.775 639.137 353.346C639.277 352.917 639.347 352.478 639.347 352.03C639.347 351.554 639.272 351.101 639.123 350.672C638.973 350.233 638.759 349.851 638.479 349.524C638.208 349.188 637.877 348.922 637.485 348.726C637.102 348.521 636.673 348.418 636.197 348.418C635.693 348.418 635.245 348.525 634.853 348.74C634.461 348.945 634.129 349.216 633.859 349.552C633.588 349.888 633.378 350.275 633.229 350.714C633.089 351.143 633.019 351.582 633.019 352.03ZM644.638 357.14C643.873 357.14 643.294 356.893 642.902 356.398C642.51 355.894 642.314 355.147 642.314 354.158L642.314 349.678L643.854 349.678L643.854 353.85C643.854 355.166 644.321 355.824 645.254 355.824C645.693 355.824 646.108 355.689 646.5 355.418C646.892 355.147 647.195 354.755 647.41 354.242L647.41 349.678L648.95 349.678L648.95 355.18C648.95 355.357 648.978 355.483 649.034 355.558C649.099 355.633 649.211 355.675 649.37 355.684L649.37 357C649.211 357.028 649.081 357.047 648.978 357.056C648.875 357.065 648.777 357.07 648.684 357.07C648.404 357.07 648.166 356.995 647.97 356.846C647.774 356.687 647.671 356.487 647.662 356.244L647.634 355.516C647.307 356.048 646.883 356.454 646.36 356.734C645.837 357.005 645.263 357.14 644.638 357.14ZM654.989 356.622C654.793 356.715 654.523 356.823 654.177 356.944C653.832 357.056 653.463 357.112 653.071 357.112C652.828 357.112 652.6 357.079 652.385 357.014C652.171 356.949 651.979 356.851 651.811 356.72C651.652 356.589 651.527 356.421 651.433 356.216C651.34 356.001 651.293 355.745 651.293 355.446L651.293 350.868L650.327 350.868L650.327 349.678L651.293 349.678L651.293 347.27L652.833 347.27L652.833 349.678L654.429 349.678L654.429 350.868L652.833 350.868L652.833 354.956C652.852 355.217 652.931 355.409 653.071 355.53C653.221 355.642 653.403 355.698 653.617 355.698C653.832 355.698 654.037 355.661 654.233 355.586C654.429 355.511 654.574 355.451 654.667 355.404L654.989 356.622ZM668.069 357L668.069 349.846L665.115 355.264L664.247 355.264L661.279 349.846L661.279 357L659.711 357L659.711 347.06L661.391 347.06L664.681 353.136L667.971 347.06L669.651 347.06L669.651 357L668.069 357ZM674.891 357.14C674.312 357.14 673.789 357.037 673.323 356.832C672.865 356.627 672.473 356.351 672.147 356.006C671.82 355.661 671.568 355.259 671.391 354.802C671.213 354.335 671.125 353.85 671.125 353.346C671.125 352.842 671.213 352.361 671.391 351.904C671.568 351.437 671.82 351.031 672.147 350.686C672.483 350.341 672.879 350.065 673.337 349.86C673.803 349.655 674.321 349.552 674.891 349.552C675.46 349.552 675.973 349.655 676.431 349.86C676.897 350.065 677.294 350.341 677.621 350.686C677.957 351.031 678.213 351.437 678.391 351.904C678.568 352.361 678.657 352.842 678.657 353.346C678.657 353.85 678.568 354.335 678.391 354.802C678.213 355.259 677.957 355.661 677.621 356.006C677.294 356.351 676.897 356.627 676.431 356.832C675.973 357.037 675.46 357.14 674.891 357.14ZM672.707 353.36C672.707 353.715 672.763 354.041 672.875 354.34C672.987 354.639 673.141 354.9 673.337 355.124C673.533 355.339 673.761 355.511 674.023 355.642C674.293 355.763 674.583 355.824 674.891 355.824C675.199 355.824 675.483 355.763 675.745 355.642C676.015 355.511 676.249 355.334 676.445 355.11C676.641 354.886 676.795 354.625 676.907 354.326C677.019 354.027 677.075 353.701 677.075 353.346C677.075 353.001 677.019 352.679 676.907 352.38C676.795 352.072 676.641 351.806 676.445 351.582C676.249 351.358 676.015 351.185 675.745 351.064C675.483 350.933 675.199 350.868 674.891 350.868C674.592 350.868 674.307 350.933 674.037 351.064C673.775 351.195 673.547 351.372 673.351 351.596C673.155 351.82 672.996 352.086 672.875 352.394C672.763 352.693 672.707 353.015 672.707 353.36ZM684.139 351.008C683.541 351.027 683.009 351.167 682.543 351.428C682.085 351.68 681.759 352.044 681.563 352.52L681.563 357L680.023 357L680.023 349.678L681.451 349.678L681.451 351.316C681.703 350.812 682.029 350.411 682.431 350.112C682.841 349.804 683.28 349.636 683.747 349.608C683.84 349.608 683.915 349.608 683.971 349.608C684.036 349.608 684.092 349.613 684.139 349.622L684.139 351.008ZM688.208 357.14C687.638 357.14 687.12 357.042 686.654 356.846C686.187 356.641 685.786 356.365 685.45 356.02C685.123 355.675 684.866 355.273 684.68 354.816C684.503 354.359 684.414 353.873 684.414 353.36C684.414 352.847 684.502 352.361 684.68 351.904C684.866 351.437 685.123 351.031 685.45 350.686C685.786 350.331 686.187 350.056 686.654 349.86C687.12 349.655 687.643 349.552 688.222 349.552C688.791 349.552 689.304 349.655 689.762 349.86C690.228 350.065 690.625 350.341 690.952 350.686C691.278 351.022 691.526 351.419 691.694 351.876C691.871 352.324 691.96 352.795 691.96 353.29C691.96 353.402 691.955 353.509 691.946 353.612C691.936 353.705 691.927 353.785 691.918 353.85L686.052 353.85C686.08 354.177 686.154 354.471 686.276 354.732C686.406 354.993 686.57 355.222 686.766 355.418C686.971 355.605 687.2 355.749 687.452 355.852C687.713 355.955 687.984 356.006 688.264 356.006C688.469 356.006 688.67 355.983 688.866 355.936C689.071 355.88 689.258 355.805 689.426 355.712C689.594 355.609 689.743 355.488 689.874 355.348C690.004 355.208 690.107 355.054 690.182 354.886L691.498 355.264C691.246 355.815 690.826 356.267 690.238 356.622C689.659 356.967 688.982 357.14 688.208 357.14ZM690.434 352.786C690.406 352.478 690.326 352.193 690.196 351.932C690.074 351.671 689.916 351.451 689.72 351.274C689.524 351.087 689.295 350.943 689.034 350.84C688.772 350.737 688.497 350.686 688.208 350.686C687.918 350.686 687.643 350.737 687.382 350.84C687.13 350.943 686.906 351.087 686.71 351.274C686.514 351.451 686.355 351.671 686.234 351.932C686.112 352.193 686.038 352.478 686.01 352.786L690.434 352.786Z" fill="#D0D8E4"/>
</svg>
